<svg width="25" height="25" viewBox="0 0 25 25" fill="none" xmlns="http://www.w3.org/2000/svg">
<path d="M11 19.0001C12.0506 19.0001 13.0908 18.7932 14.0614 18.3911C15.0321 17.9891 15.914 17.3998 16.6568 16.657C17.3997 15.9141 17.989 15.0322 18.391 14.0616C18.7931 13.091 19 12.0507 19 11.0001C19 9.94953 18.7931 8.90924 18.391 7.93863C17.989 6.96803 17.3997 6.08612 16.6568 5.34325C15.914 4.60038 15.0321 4.0111 14.0614 3.60907C13.0908 3.20703 12.0506 3.0001 11 3.0001C8.87825 3.0001 6.84342 3.84296 5.34313 5.34325C3.84283 6.84354 2.99998 8.87837 2.99998 11.0001C2.99998 13.1218 3.84283 15.1567 5.34313 16.657C6.84342 18.1572 8.87825 19.0001 11 19.0001V19.0001ZM19.4266 17.5414L24.2 22.3148C24.3272 22.4379 24.4287 22.5851 24.4985 22.7478C24.5682 22.9105 24.6049 23.0855 24.6063 23.2625C24.6077 23.4396 24.5738 23.6151 24.5067 23.7789C24.4395 23.9427 24.3404 24.0915 24.2151 24.2166C24.0899 24.3417 23.9409 24.4406 23.777 24.5076C23.6131 24.5745 23.4375 24.6081 23.2605 24.6064C23.0834 24.6048 22.9085 24.5679 22.7459 24.4979C22.5833 24.4279 22.4362 24.3262 22.3133 24.1988L17.54 19.4254C15.3966 21.0892 12.6997 21.8737 9.99832 21.619C7.29693 21.3644 4.79412 20.0899 2.99938 18.0548C1.20464 16.0198 0.252892 13.3774 0.33788 10.6653C0.422868 7.9533 1.53821 5.3756 3.45684 3.45696C5.37548 1.53833 7.95318 0.42299 10.6652 0.338002C13.3772 0.253014 16.0197 1.20476 18.0547 2.9995C20.0897 4.79424 21.3643 7.29705 21.6189 9.99844C21.8735 12.6998 21.0891 15.3967 19.4253 17.5401L19.4266 17.5414Z" fill="#8B8B8B"/>
</svg>
